<svg width="24" height="24" viewBox="0 0 24 24" fill="none" xmlns="http://www.w3.org/2000/svg">
<path d="M23.0483 21.6767L16.4129 15.0414C17.6982 13.4538 18.4721 11.4364 18.4721 9.23922C18.4721 4.14677 14.3285 0.00317383 9.23601 0.00317383C4.14355 0.00317383 0 4.14672 0 9.23918C0 14.3316 4.14359 18.4752 9.23605 18.4752C11.4332 18.4752 13.4506 17.7014 15.0382 16.4161L21.6736 23.0514C21.8632 23.241 22.112 23.3363 22.3609 23.3363C22.6099 23.3363 22.8587 23.241 23.0483 23.0514C23.4284 22.6713 23.4284 22.0569 23.0483 21.6767ZM9.23605 16.5308C5.21496 16.5308 1.94444 13.2603 1.94444 9.23918C1.94444 5.21809 5.21496 1.94757 9.23605 1.94757C13.2571 1.94757 16.5277 5.21809 16.5277 9.23918C16.5277 13.2603 13.2571 16.5308 9.23605 16.5308Z" fill="#444244" fill-opacity="0.8"/>
</svg>
